<?xml version="1.0" standalone="no"?>
<!DOCTYPE svg PUBLIC "-//W3C//DTD SVG 20010904//EN"
 "http://www.w3.org/TR/2001/REC-SVG-20010904/DTD/svg10.dtd">
<svg version="1.0" xmlns="http://www.w3.org/2000/svg"
 width="1024.000000pt" height="1024.000000pt" viewBox="0 0 1024.000000 1024.000000"
 preserveAspectRatio="xMidYMid meet">

<g transform="translate(0.000000,1024.000000) scale(0.100000,-0.100000)"
fill="#ef4d42" stroke="none">
<path d="M4735 6681 c-45 -11 -69 -26 -104 -66 -108 -123 -232 -528 -355
-1160 -51 -260 -76 -408 -72 -412 2 -3 23 76 46 174 99 414 195 769 262 963
44 126 129 306 172 362 68 90 150 69 213 -56 38 -76 47 -103 154 -511 55 -209
149 -560 209 -780 59 -220 154 -577 210 -794 125 -485 141 -530 227 -639 62
-76 57 -75 419 -75 204 0 328 4 340 11 11 6 32 33 47 59 28 53 118 310 197
568 51 167 270 980 269 999 -1 21 -21 -42 -125 -389 -179 -596 -337 -1069
-382 -1148 -49 -83 -129 -9 -190 175 -17 51 -60 210 -97 353 -37 143 -102 391
-145 550 -43 160 -142 533 -220 830 -210 804 -212 809 -304 912 -76 84 -69 83
-428 82 -172 -1 -326 -4 -343 -8z"/>
<path d="M7043 6679 c-127 -16 -245 -152 -387 -444 -141 -289 -285 -707 -390
-1135 -47 -190 -46 -184 -36 -174 4 5 37 106 74 224 175 573 308 921 451 1180
61 111 104 169 166 224 92 83 162 83 238 1 53 -58 87 -128 111 -228 16 -67 90
-661 141 -1130 9 -80 15 -107 25 -103 6 2 142 110 301 238 159 128 304 245
323 259 l33 25 -11 55 c-80 389 -146 686 -162 735 -41 122 -122 232 -197 265
-38 18 -66 19 -335 17 -161 -1 -316 -5 -345 -9z"/>
<path d="M2430 6668 c131 -56 175 -82 224 -131 94 -94 97 -102 371 -1017 70
-234 173 -578 230 -765 57 -187 134 -443 170 -570 73 -254 107 -333 173 -406
85 -94 81 -94 447 -97 210 -2 333 0 357 8 20 5 49 25 64 43 99 116 225 560
363 1272 23 116 44 224 47 240 4 17 4 28 1 25 -4 -3 -42 -143 -86 -310 -220
-840 -267 -1002 -317 -1102 -55 -109 -129 -116 -217 -19 -55 61 -82 123 -142
324 -29 100 -136 457 -236 792 -100 336 -238 801 -306 1035 -133 454 -152 502
-239 599 -85 95 -65 91 -526 90 -296 0 -396 -3 -378 -11z"/>
</g>
</svg>
