<svg height="736pt" preserveAspectRatio="xMidYMid meet" viewBox="0 0 736 736" width="736pt" xmlns="http://www.w3.org/2000/svg"><g  transform="matrix(.1 0 0 -.1 0 736)"><path d="m1837 4726c-56-20-78-45-125-139-91-183-210-526-196-563 12-30 297-483 305-484 3 0 33 96 67 213 33 117 64 222 68 232 20 56-11-8-77-157-40-92-77-164-81-160s-56 87-117 186l-110 178 30 82c113 305 204 508 246 548 22 21 26 21 51 8 68-39 59-11 529-1600 97-329 107-357 151-415 66-88 73-90 342-93 275-3 287 0 332 83 35 63 88 225 133 403 38 153 115 525 114 550 0 17-17-45-124-448-78-295-135-461-172-502-27-30-77-23-117 17-60 60-67 77-176 445-177 598-420 1408-434 1447-20 56-71 133-104 158-25 19-45 20-262 22-181 2-244-1-273-11z" stroke="#1E3A8A" /><path d="m3378 4708c-66-38-129-186-207-488-41-156-121-544-121-577 1-10 30 95 64 232 112 440 194 666 277 760 85 97 149 7 238-332 27-104 91-343 141-533 126-476 121-458 189-717 75-284 92-334 136-400 57-86 47-84 331-81l249 3 27 50c48 86 159 443 278 888 17 66 30 121 28 123s-27-74-56-169c-95-310-252-781-272-814-39-64-94-31-138 82-18 48-54 179-233 855-273 1036-253 966-294 1036-13 23-40 55-60 73l-36 31h-252c-240 0-254-2-289-22z"/><path d="m5033 4713c-119-42-251-281-383-698-45-143-141-499-140-521 1-5 38 104 84 241 106 318 170 480 264 669 62 123 87 162 137 213 53 55 66 63 98 63 49 0 79-21 116-78 52-83 66-164 136-787 14-126 27-231 30-233 2-2 111 83 243 188l239 192-9 41c-5 23-31 150-59 282-54 265-88 356-154 414l-36 31-262-1c-205 0-271-4-304-16z"/><path d="m3501 3634c0-11 3-14 6-6 3 7 2 16-1 19-3 4-6-2-5-13z"/><path d="m3042 3600c0-14 2-19 5-12 2 6 2 18 0 25-3 6-5 1-5-13z"/></g></svg>