<svg xmlns="http://www.w3.org/2000/svg" xmlns:xlink="http://www.w3.org/1999/xlink" width="1406" height="727.3"><rect width="1406" height="727.3" rx="5" ry="5" class="a"/><svg y="0%" x="0%"><circle cx="20" cy="20" r="6" fill="#ff5f58"/><circle cx="40" cy="20" r="6" fill="#ffbd2e"/><circle cx="60" cy="20" r="6" fill="#18c132"/></svg><svg height="651.3" viewBox="0 0 135 65.13" width="1350" x="23" xmlns="http://www.w3.org/2000/svg" xmlns:xlink="http://www.w3.org/1999/xlink" y="58"><style>@keyframes o{0%{transform:translateX(0)}3.5%{transform:translateX(-270px)}4.5%{transform:translateX(-675px)}17.7%{transform:translateX(-810px)}19.4%{transform:translateX(-945px)}21.8%{transform:translateX(-1080px)}23.4%{transform:translateX(-1215px)}24.2%{transform:translateX(-1350px)}25.9%{transform:translateX(-1485px)}33.8%{transform:translateX(-1620px)}41%{transform:translateX(-2160px)}44.3%{transform:translateX(-2295px)}57.2%{transform:translateX(-2565px)}57.3%{transform:translateX(-2970px)}66.7%{transform:translateX(-3240px)}72.2%{transform:translateX(-3645px)}73.2%{transform:translateX(-4050px)}77.8%{transform:translateX(-4320px)}87.6%{transform:translateX(-4995px)}88.7%{transform:translateX(-5400px)}to{transform:translateX(-5535px)}}.a{fill:#282d35}.f{fill:#b9c0cb;white-space:pre}.g{fill:#71bef2}.h,.i{white-space:pre}.i{fill:#71bef2}.j{fill:#a8cc8c}.j,.k,.l,.q,.r{white-space:pre}.k{fill:#b9c0cb;font-weight:700}.l,.q,.r{fill:#66c2cd}.q,.r{fill:#6f7783}.r{fill:#e88388;font-weight:700}</style><g font-family="Monaco,Consolas,Menlo,'Bitstream Vera Sans Mono','Powerline Symbols',monospace" font-size="1.67"><defs><symbol id="1">0<text y="1.67" class="f">tomatoboy</text><path class="g" d="M11.022 0h31v2.171h-31z"/><text x="11.022" y="1.67" class="h"> ~/Develop/Github/NodeJs/test</text><text x="42.084" y="1.67" class="i"></text></symbol><symbol id="2">0<text y="1.67" class="f">tomatoboy</text><path class="g" d="M11.022 0h31v2.171h-31z"/><text x="11.022" y="1.67" class="h"> ~/Develop/Github/NodeJs/test</text><text x="42.084" y="1.67" class="i"></text><text x="44.088" y="1.67" class="j">wukong-deploy</text><text x="58.116" y="1.67" class="f">deploy</text></symbol><symbol id="3"><text y="1.67" class="j">✔</text><text x="2.004" y="1.67" class="k">Please</text><text x="9.018" y="1.67" class="k">select</text><text x="16.032" y="1.67" class="k">the</text><text x="20.04" y="1.67" class="k">server</text><text x="27.054" y="1.67" class="k">to</text><text x="30.06" y="1.67" class="k">deploy</text><text x="37.074" y="1.67" class="l">Development</text><text x="49.098" y="1.67" class="l">Server</text></symbol><symbol id="4"><text y="1.67" class="f">📋</text><text x="3.006" y="1.67" class="f">Will</text><text x="8.016" y="1.67" class="f">execute</text><text x="16.032" y="1.67" class="f">the</text><text x="20.04" y="1.67" class="f">following</text><text x="30.06" y="1.67" class="f">commands</text><text x="39.078" y="1.67" class="f">on</text><text x="42.084" y="1.67" class="f">Development</text><text x="54.108" y="1.67" class="f">Server</text><text x="61.122" y="1.67" class="f">():</text></symbol><symbol id="5"><text y="1.67" class="f">1.</text><text x="3.006" y="1.67" class="f">:</text><text x="5.01" y="1.67" class="f">touch</text><text x="11.022" y="1.67" class="f">test1.md</text></symbol><symbol id="6"><text y="1.67" class="i">?</text><text x="2.004" y="1.67" class="k">Confirm</text><text x="10.02" y="1.67" class="k">to</text><text x="13.026" y="1.67" class="k">execute</text><text x="21.042" y="1.67" class="k">these</text><text x="27.054" y="1.67" class="k">commands?</text><text x="37.074" y="1.67" class="f">(y/N)</text></symbol><symbol id="7"><text y="1.67" class="i">?</text><text x="2.004" y="1.67" class="k">Confirm</text><text x="10.02" y="1.67" class="k">to</text><text x="13.026" y="1.67" class="k">execute</text><text x="21.042" y="1.67" class="k">these</text><text x="27.054" y="1.67" class="k">commands?</text><text x="37.074" y="1.67" class="f">(y/N)</text><text x="43.086" y="1.67" class="f">y</text></symbol><symbol id="8"><text y="1.67" class="j">✔</text><text x="2.004" y="1.67" class="k">Confirm</text><text x="10.02" y="1.67" class="k">to</text><text x="13.026" y="1.67" class="k">execute</text><text x="21.042" y="1.67" class="k">these</text><text x="27.054" y="1.67" class="k">commands?</text><text x="37.074" y="1.67" class="l">Yes</text></symbol><symbol id="9"><text y="1.67" class="f">[21:56:51]</text><text x="11.022" y="1.67" class="l">➤</text><text x="13.026" y="1.67" class="l">start</text><text x="19.038" y="1.67" class="l">deploy</text></symbol><symbol id="10"><text y="1.67" class="f">Found</text><text x="6.012" y="1.67" class="f">server</text><text x="13.026" y="1.67" class="f">config:</text><text x="21.042" y="1.67" class="f">Development</text><text x="33.066" y="1.67" class="f">Server</text></symbol><symbol id="11"><text y="1.67" class="f">[21:56:51]</text><text x="11.022" y="1.67" class="l">➤</text><text x="13.026" y="1.67" class="l">🔗</text><text x="16.032" y="1.67" class="l">Connecting</text><text x="27.054" y="1.67" class="l">to</text><text x="30.06" y="1.67" class="l">Development</text><text x="42.084" y="1.67" class="l">Server</text><text x="49.098" y="1.67" class="l">...</text></symbol><symbol id="12"><text y="1.67" class="f">[21:56:51]</text><text x="11.022" y="1.67" class="j">✔</text><text x="13.026" y="1.67" class="j">✅</text><text x="15.03" y="1.67" class="j">SSH</text><text x="19.038" y="1.67" class="j">connection</text><text x="30.06" y="1.67" class="j">successful</text></symbol><symbol id="13"><text y="1.67" class="f">[21:56:51]</text><text x="11.022" y="1.67" class="l">➤</text><text x="13.026" y="1.67" class="l">💻</text><text x="16.032" y="1.67" class="l">Executing</text><text x="26.052" y="1.67" class="l">command:</text><text x="35.07" y="1.67" class="l">touch</text><text x="41.082" y="1.67" class="l">test1.md</text></symbol><symbol id="14"><text y="1.67" class="f">[21:56:52]</text><text x="11.022" y="1.67" class="j">✔</text><text x="13.026" y="1.67" class="j">🎉</text><text x="16.032" y="1.67" class="j">Development</text><text x="28.056" y="1.67" class="j">Server</text><text x="35.07" y="1.67" class="j">Success</text><text x="43.086" y="1.67" class="j">test</text></symbol><symbol id="15"><text y="1.67" class="j">⏱</text><text x="2.004" y="1.67" class="j">Execution</text><text x="12.024" y="1.67" class="j">time:</text><text x="18.036" y="1.67" class="j">1.60</text><text x="23.046" y="1.67" class="j">seconds</text></symbol><symbol id="a"><path fill="transparent" d="M0 0h135v30H0z"/></symbol><symbol id="b"><path fill="#6f7683" d="M0 0h1.102v2.171H0z"/></symbol></defs><path class="a" d="M0 0h135v65.13H0z"/><g style="animation-duration:11.070831s;animation-iteration-count:infinite;animation-name:o;animation-timing-function:steps(1,end)"><svg width="5670"><svg><use xlink:href="#a"/><use xlink:href="#b" x="-.004"/></svg><svg x="135"><use xlink:href="#a"/><use xlink:href="#b" x="-.004"/></svg><svg x="270"><use xlink:href="#a"/><use xlink:href="#b" x="-.004"/></svg><svg x="405"><use xlink:href="#a"/><use xlink:href="#b" x="43.996"/><use xlink:href="#1"/></svg><svg x="540"><use xlink:href="#a"/><use xlink:href="#b" x="43.996"/><use xlink:href="#1"/></svg><svg x="675"><use xlink:href="#a"/><use xlink:href="#b" x="43.996"/><use xlink:href="#1"/></svg><svg x="810"><use xlink:href="#a"/><use xlink:href="#b" x="44.996"/>0<text y="1.67" class="f">tomatoboy</text><path class="g" d="M11.022 0h31v2.171h-31z"/><text x="11.022" y="1.67" class="h"> ~/Develop/Github/NodeJs/test</text><text x="42.084" y="1.67" class="i"></text><text x="44.088" y="1.67" class="j">w</text><text x="45.09" y="1.67" class="q">ukong-deploy</text><text x="58.116" y="1.67" class="q">deploy</text></svg><svg x="945"><use xlink:href="#a"/><use xlink:href="#b" x="45.996"/>0<text y="1.67" class="f">tomatoboy</text><path class="g" d="M11.022 0h31v2.171h-31z"/><text x="11.022" y="1.67" class="h"> ~/Develop/Github/NodeJs/test</text><text x="42.084" y="1.67" class="i"></text><text x="44.088" y="1.67" class="r">wu</text><text x="46.092" y="1.67" class="q">kong-deploy</text><text x="58.116" y="1.67" class="q">deploy</text></svg><svg x="1080"><use xlink:href="#a"/><use xlink:href="#b" x="46.996"/>0<text y="1.67" class="f">tomatoboy</text><path class="g" d="M11.022 0h31v2.171h-31z"/><text x="11.022" y="1.67" class="h"> ~/Develop/Github/NodeJs/test</text><text x="42.084" y="1.67" class="i"></text><text x="44.088" y="1.67" class="r">wuk</text><text x="47.094" y="1.67" class="q">ong-deploy</text><text x="58.116" y="1.67" class="q">deploy</text></svg><svg x="1215"><use xlink:href="#a"/><use xlink:href="#b" x="47.996"/>0<text y="1.67" class="f">tomatoboy</text><path class="g" d="M11.022 0h31v2.171h-31z"/><text x="11.022" y="1.67" class="h"> ~/Develop/Github/NodeJs/test</text><text x="42.084" y="1.67" class="i"></text><text x="44.088" y="1.67" class="r">wuko</text><text x="48.096" y="1.67" class="q">ng-deploy</text><text x="58.116" y="1.67" class="q">deploy</text></svg><svg x="1350"><use xlink:href="#a"/><use xlink:href="#b" x="48.996"/>0<text y="1.67" class="f">tomatoboy</text><path class="g" d="M11.022 0h31v2.171h-31z"/><text x="11.022" y="1.67" class="h"> ~/Develop/Github/NodeJs/test</text><text x="42.084" y="1.67" class="i"></text><text x="44.088" y="1.67" class="r">wukon</text><text x="49.098" y="1.67" class="q">g-deploy</text><text x="58.116" y="1.67" class="q">deploy</text></svg><svg x="1485"><use xlink:href="#a"/><use xlink:href="#b" x="49.996"/>0<text y="1.67" class="f">tomatoboy</text><path class="g" d="M11.022 0h31v2.171h-31z"/><text x="11.022" y="1.67" class="h"> ~/Develop/Github/NodeJs/test</text><text x="42.084" y="1.67" class="i"></text><text x="44.088" y="1.67" class="r">wukong</text><text x="50.1" y="1.67" class="q">-deploy</text><text x="58.116" y="1.67" class="q">deploy</text></svg><svg x="1620"><use xlink:href="#a"/><use xlink:href="#b" x="63.996"/><use xlink:href="#2"/></svg><svg x="1755"><use xlink:href="#a"/><use xlink:href="#b" x="63.996"/><use xlink:href="#2"/></svg><svg x="1890"><use xlink:href="#a"/><use xlink:href="#b" x="-.004" y="2.146"/><use xlink:href="#2"/></svg><svg x="2025"><use xlink:href="#a"/><use xlink:href="#b" x="-.004" y="2.146"/><use xlink:href="#2"/></svg><svg x="2160"><use xlink:href="#a"/><use xlink:href="#b" x="-.004" y="2.146"/><use xlink:href="#2"/></svg><svg x="2295"><use xlink:href="#a"/><use xlink:href="#2"/><text y="3.841" class="i">?</text><text x="2.004" y="3.841" class="k">Please</text><text x="9.018" y="3.841" class="k">select</text><text x="16.032" y="3.841" class="k">the</text><text x="20.04" y="3.841" class="k">server</text><text x="27.054" y="3.841" class="k">to</text><text x="30.06" y="3.841" class="k">deploy</text><text x="37.074" y="3.841" class="f">(Use</text><text x="42.084" y="3.841" class="f">arrow</text><text x="48.096" y="3.841" class="f">keys)</text><text y="6.012" class="l">❯</text><text x="2.004" y="6.012" class="l">Development</text><text x="14.028" y="6.012" class="l">Server</text><text x="2.004" y="8.183" class="f">Staging</text><text x="10.02" y="8.183" class="f">Server</text><text x="2.004" y="10.354" class="f">Production</text><text x="13.026" y="10.354" class="f">Server</text><text x="2.004" y="12.525" class="f">❌</text><text x="4.008" y="12.525" class="f">Cancel</text><text x="11.022" y="12.525" class="f">deployment</text></svg><svg x="2430"><use xlink:href="#a"/><use xlink:href="#2"/><use xlink:href="#3" y="2.171"/></svg><svg x="2565"><use xlink:href="#a"/><use xlink:href="#b" x="-.004" y="4.317"/><use xlink:href="#2"/><use xlink:href="#3" y="2.171"/></svg><svg x="2700"><use xlink:href="#a"/><use xlink:href="#b" x="-.004" y="8.659"/><use xlink:href="#2"/><use xlink:href="#3" y="2.171"/><use xlink:href="#4" y="6.513"/></svg><svg x="2835"><use xlink:href="#a"/><use xlink:href="#b" x="-.004" y="10.83"/><use xlink:href="#2"/><use xlink:href="#3" y="2.171"/><use xlink:href="#4" y="6.513"/><use xlink:href="#5" y="8.684"/></svg><svg x="2970"><use xlink:href="#a"/><use xlink:href="#b" x="42.996" y="10.83"/><use xlink:href="#2"/><use xlink:href="#3" y="2.171"/><use xlink:href="#4" y="6.513"/><use xlink:href="#5" y="8.684"/><use xlink:href="#6" y="10.855"/></svg><svg x="3105"><use xlink:href="#a"/><use xlink:href="#b" x="43.996" y="10.83"/><use xlink:href="#2"/><use xlink:href="#3" y="2.171"/><use xlink:href="#4" y="6.513"/><use xlink:href="#5" y="8.684"/><use xlink:href="#6" y="10.855"/></svg><svg x="3240"><use xlink:href="#a"/><use xlink:href="#b" x="43.996" y="10.83"/><use xlink:href="#2"/><use xlink:href="#3" y="2.171"/><use xlink:href="#4" y="6.513"/><use xlink:href="#5" y="8.684"/><use xlink:href="#7" y="10.855"/></svg><svg x="3375"><use xlink:href="#a"/><use xlink:href="#b" x="42.996" y="10.83"/><use xlink:href="#2"/><use xlink:href="#3" y="2.171"/><use xlink:href="#4" y="6.513"/><use xlink:href="#5" y="8.684"/><use xlink:href="#7" y="10.855"/></svg><svg x="3510"><use xlink:href="#a"/><use xlink:href="#b" x="39.996" y="10.83"/><use xlink:href="#2"/><use xlink:href="#3" y="2.171"/><use xlink:href="#4" y="6.513"/><use xlink:href="#5" y="8.684"/><use xlink:href="#8" y="10.855"/></svg><svg x="3645"><use xlink:href="#a"/><use xlink:href="#b" x="-.004" y="13.001"/><use xlink:href="#2"/><use xlink:href="#3" y="2.171"/><use xlink:href="#4" y="6.513"/><use xlink:href="#5" y="8.684"/><use xlink:href="#8" y="10.855"/></svg><svg x="3780"><use xlink:href="#a"/><use xlink:href="#b" x="-.004" y="17.343"/><use xlink:href="#2"/><use xlink:href="#3" y="2.171"/><use xlink:href="#4" y="6.513"/><use xlink:href="#5" y="8.684"/><use xlink:href="#8" y="10.855"/><use xlink:href="#9" y="15.197"/></svg><svg x="3915"><use xlink:href="#a"/><use xlink:href="#b" x="-.004" y="19.514"/><use xlink:href="#2"/><use xlink:href="#3" y="2.171"/><use xlink:href="#4" y="6.513"/><use xlink:href="#5" y="8.684"/><use xlink:href="#8" y="10.855"/><use xlink:href="#9" y="15.197"/><use xlink:href="#10" y="17.368"/></svg><svg x="4050"><use xlink:href="#a"/><use xlink:href="#b" x="-.004" y="21.685"/><use xlink:href="#2"/><use xlink:href="#3" y="2.171"/><use xlink:href="#4" y="6.513"/><use xlink:href="#5" y="8.684"/><use xlink:href="#8" y="10.855"/><use xlink:href="#9" y="15.197"/><use xlink:href="#10" y="17.368"/><use xlink:href="#11" y="19.539"/></svg><svg x="4185"><use xlink:href="#a"/><use xlink:href="#b" x="-.004" y="23.856"/><use xlink:href="#2"/><use xlink:href="#3" y="2.171"/><use xlink:href="#4" y="6.513"/><use xlink:href="#5" y="8.684"/><use xlink:href="#8" y="10.855"/><use xlink:href="#9" y="15.197"/><use xlink:href="#10" y="17.368"/><use xlink:href="#11" y="19.539"/><use xlink:href="#12" y="21.71"/></svg><svg x="4320"><use xlink:href="#a"/><use xlink:href="#b" x="-.004" y="26.027"/><use xlink:href="#2"/><use xlink:href="#3" y="2.171"/><use xlink:href="#4" y="6.513"/><use xlink:href="#5" y="8.684"/><use xlink:href="#8" y="10.855"/><use xlink:href="#9" y="15.197"/><use xlink:href="#10" y="17.368"/><use xlink:href="#11" y="19.539"/><use xlink:href="#12" y="21.71"/><use xlink:href="#13" y="23.881"/></svg><svg x="4455"><use xlink:href="#a"/><use xlink:href="#b" x="-.004" y="28.198"/><use xlink:href="#2"/><use xlink:href="#3" y="2.171"/><use xlink:href="#4" y="6.513"/><use xlink:href="#5" y="8.684"/><use xlink:href="#8" y="10.855"/><use xlink:href="#9" y="15.197"/><use xlink:href="#10" y="17.368"/><use xlink:href="#11" y="19.539"/><use xlink:href="#12" y="21.71"/><use xlink:href="#13" y="23.881"/><use xlink:href="#14" y="26.052"/></svg><svg x="4590"><use xlink:href="#a"/><use xlink:href="#b" x="-.004" y="34.711"/><use xlink:href="#2"/><use xlink:href="#3" y="2.171"/><use xlink:href="#4" y="6.513"/><use xlink:href="#5" y="8.684"/><use xlink:href="#8" y="10.855"/><use xlink:href="#9" y="15.197"/><use xlink:href="#10" y="17.368"/><use xlink:href="#11" y="19.539"/><use xlink:href="#12" y="21.71"/><use xlink:href="#13" y="23.881"/><use xlink:href="#14" y="26.052"/><use xlink:href="#15" y="30.394"/></svg><svg x="4725"><use xlink:href="#a"/><use xlink:href="#b" x="-.004" y="34.711"/><use xlink:href="#2"/><use xlink:href="#3" y="2.171"/><use xlink:href="#4" y="6.513"/><use xlink:href="#5" y="8.684"/><use xlink:href="#8" y="10.855"/><use xlink:href="#9" y="15.197"/><use xlink:href="#10" y="17.368"/><use xlink:href="#11" y="19.539"/><use xlink:href="#12" y="21.71"/><use xlink:href="#13" y="23.881"/><use xlink:href="#14" y="26.052"/><use xlink:href="#15" y="30.394"/></svg><svg x="4860"><use xlink:href="#a"/><use xlink:href="#b" x="-.004" y="34.711"/><use xlink:href="#2"/><use xlink:href="#3" y="2.171"/><use xlink:href="#4" y="6.513"/><use xlink:href="#5" y="8.684"/><use xlink:href="#8" y="10.855"/><use xlink:href="#9" y="15.197"/><use xlink:href="#10" y="17.368"/><use xlink:href="#11" y="19.539"/><use xlink:href="#12" y="21.71"/><use xlink:href="#13" y="23.881"/><use xlink:href="#14" y="26.052"/><use xlink:href="#15" y="30.394"/></svg><svg x="4995"><use xlink:href="#a"/><use xlink:href="#b" x="-.004" y="34.711"/><use xlink:href="#2"/><use xlink:href="#3" y="2.171"/><use xlink:href="#4" y="6.513"/><use xlink:href="#5" y="8.684"/><use xlink:href="#8" y="10.855"/><use xlink:href="#9" y="15.197"/><use xlink:href="#10" y="17.368"/><use xlink:href="#11" y="19.539"/><use xlink:href="#12" y="21.71"/><use xlink:href="#13" y="23.881"/><use xlink:href="#14" y="26.052"/><use xlink:href="#15" y="30.394"/></svg><svg x="5130"><use xlink:href="#a"/><use xlink:href="#b" x="43.996" y="34.711"/><use xlink:href="#2"/><use xlink:href="#3" y="2.171"/><use xlink:href="#4" y="6.513"/><use xlink:href="#5" y="8.684"/><use xlink:href="#8" y="10.855"/><use xlink:href="#9" y="15.197"/><use xlink:href="#10" y="17.368"/><use xlink:href="#11" y="19.539"/><use xlink:href="#12" y="21.71"/><use xlink:href="#13" y="23.881"/><use xlink:href="#14" y="26.052"/><use xlink:href="#15" y="30.394"/><use xlink:href="#1" y="34.736"/></svg><svg x="5265"><use xlink:href="#a"/><use xlink:href="#b" x="43.996" y="34.711"/><use xlink:href="#2"/><use xlink:href="#3" y="2.171"/><use xlink:href="#4" y="6.513"/><use xlink:href="#5" y="8.684"/><use xlink:href="#8" y="10.855"/><use xlink:href="#9" y="15.197"/><use xlink:href="#10" y="17.368"/><use xlink:href="#11" y="19.539"/><use xlink:href="#12" y="21.71"/><use xlink:href="#13" y="23.881"/><use xlink:href="#14" y="26.052"/><use xlink:href="#15" y="30.394"/><use xlink:href="#1" y="34.736"/></svg><svg x="5400"><use xlink:href="#a"/><use xlink:href="#b" x="43.996" y="34.711"/><use xlink:href="#2"/><use xlink:href="#3" y="2.171"/><use xlink:href="#4" y="6.513"/><use xlink:href="#5" y="8.684"/><use xlink:href="#8" y="10.855"/><use xlink:href="#9" y="15.197"/><use xlink:href="#10" y="17.368"/><use xlink:href="#11" y="19.539"/><use xlink:href="#12" y="21.71"/><use xlink:href="#13" y="23.881"/><use xlink:href="#14" y="26.052"/><use xlink:href="#15" y="30.394"/><use xlink:href="#1" y="34.736"/></svg><svg x="5535"><use xlink:href="#a"/><use xlink:href="#b" x="-.004" y="36.882"/><use xlink:href="#2"/><use xlink:href="#3" y="2.171"/><use xlink:href="#4" y="6.513"/><use xlink:href="#5" y="8.684"/><use xlink:href="#8" y="10.855"/><use xlink:href="#9" y="15.197"/><use xlink:href="#10" y="17.368"/><use xlink:href="#11" y="19.539"/><use xlink:href="#12" y="21.71"/><use xlink:href="#13" y="23.881"/><use xlink:href="#14" y="26.052"/><use xlink:href="#15" y="30.394"/><use xlink:href="#1" y="34.736"/></svg></svg></g></g></svg></svg>