<?xml version="1.0" standalone="no"?><!DOCTYPE svg PUBLIC "-//W3C//DTD SVG 1.1//EN" "http://www.w3.org/Graphics/SVG/1.1/DTD/svg11.dtd"><svg t="1754621555043" class="icon" viewBox="0 0 1024 1024" version="1.1" xmlns="http://www.w3.org/2000/svg" p-id="860" xmlns:xlink="http://www.w3.org/1999/xlink" width="256" height="256"><path d="M426.1472372 250.40304057c-7.54123201 1.84341228-11.56322243 4.35715626-17.42862509 11.0604736-18.09895683 20.61270085-38.8792406 88.48378899-59.49194146 194.39620306-8.54672961 43.57156276-12.73630295 68.37383694-12.06597123 69.04416866 0.33516586 0.50274881 3.85440749-12.73630295 7.70881496-29.15943046 16.59071043-69.37933454 32.67867206-128.871276 43.90672862-161.38236513 7.37364908-21.11544964 21.61819843-51.2803777 28.8242646-60.66502196 11.39563949-15.08246403 25.13744005-11.56322243 35.69516485 9.38464427 6.36815149 12.73630295 7.87639788 17.26104215 25.80777179 85.63487911 9.21706135 35.02483313 24.96985713 93.84644284 35.02483315 130.71468826 9.88739309 36.8682454 25.8077718 96.69535273 35.19241605 133.06084933 20.9478667 81.27772282 23.62919365 88.81895485 38.04132596 107.0854946 10.39014189 12.73630295 9.55222721 12.56872002 70.21724919 12.56872002 34.18691847 0 54.96720225-0.67033173 56.97819746-1.84341227 1.84341228-1.00549761 5.36265388-5.53023681 7.87639788-9.88739308 4.69232214-8.88189547 19.77478619-51.95070943 33.01383793-95.18710632 8.54672961-27.98634993 45.24739209-164.23127499 45.07980916-167.41535073-0.16758294-3.51924161-3.51924161 7.03848323-20.94786671 65.18976121-29.99734512 99.87942846-56.47544864 179.1461561-64.01668067 192.38520784-8.21156374 13.9093835-21.61819843 1.50824641-31.84075739-29.3270134-2.84890987-8.54672961-10.05497602-35.19241606-16.25554456-59.15677558-6.20056854-23.96435951-17.09345923-65.52492707-24.29952539-92.17061353-7.20606615-26.81326939-23.7967766-89.32170363-36.86824538-139.09383492-35.19241606-134.73667867-35.52758193-135.57459333-50.94521186-152.83563551-12.73630295-14.07696642-11.56322243-13.9093835-71.72549562-13.74180056-28.82426458 0.16758294-54.63203637 0.67033173-57.48094624 1.34066349z" p-id="861" fill="#ef4d42"></path><path d="M812.9286481 250.73820643c-21.28303258 2.68132694-41.05781874 25.47260591-64.85459532 74.40682253-23.62919365 48.43146784-47.76113611 118.48113411-65.35734414 190.2066297-7.87639788 31.84075741-7.70881495 30.83525979-6.0329856 29.15943047 0.67033173-0.83791468 6.20056854-17.76379099 12.40113709-37.53857714 29.32701339-96.02502099 51.61554356-154.34388191 75.57990308-197.74786172 10.22255897-18.60170564 17.42862511-28.32151581 27.81876699-37.53857715 15.41762989-13.9093835 27.14843525-13.9093835 39.88473822-0.16758291 8.88189547 9.71981015 14.57971524 21.4506155 18.60170563 38.20890885 2.68132694 11.22805655 15.08246403 110.77231916 23.62919365 189.36871505 1.50824641 13.40663469 2.51374401 17.9313739 4.18957333 17.26104215 1.00549761-0.33516586 23.7967766-18.4341227 50.44246305-39.88473819 26.64568645-21.4506155 50.94521185-41.05781874 54.12928756-43.40397982l5.53023681-4.18957334-1.84341227-9.21706135c-13.40663469-65.18976118-24.46710831-114.96189249-27.14843526-123.17345626-6.87090027-20.44511791-20.44511791-38.8792406-33.01383792-44.40947741-6.36815149-3.01649281-11.06047362-3.18407574-56.14028278-2.84890987-26.98085232 0.16758294-52.95620705 0.83791468-57.81611212 1.50824641zM39.86857511 252.58161869c21.95336431 9.38464428 29.32701339 13.74180057 37.53857714 21.9533643 15.75279577 15.75279577 16.25554457 17.09345923 62.17326838 170.43184355 11.73080535 39.21440646 28.99184753 96.86293566 38.54407477 128.20094424 9.55222721 31.33800861 22.4561131 74.23923962 28.48909872 95.5222722 12.23355417 42.56606515 17.9313739 55.80511692 28.99184752 68.03867107 14.24454937 15.75279577 13.57421762 15.75279577 74.90957134 16.25554457 35.19241606 0.33516586 55.80511692 0 59.82710732-1.34066348 3.35165866-0.83791468 8.21156374-4.18957335 10.72530775-7.20606616 16.59071043-19.43962031 37.70616007-93.84644284 60.83260492-213.1654916 3.85440749-19.43962031 7.37364908-37.53857713 7.87639787-40.21990408 0.67033173-2.84890987 0.67033173-4.69232214 0.16758296-4.18957335-0.67033173 0.50274881-7.03848323 23.96435951-14.41213231 51.95070944-36.8682454 140.76966429-44.74464327 167.91809953-53.12378997 184.67639288-9.21706135 18.26653979-21.61819843 19.43962031-36.36549658 3.18407576-9.21706135-10.22255897-13.74180057-20.61270085-23.7967766-54.29687052-4.85990507-16.75829337-22.79127899-76.58540069-39.54957234-132.72568345-16.75829337-56.30786571-39.88473821-134.23392986-51.28037771-173.44833635-22.28853019-76.08265188-25.47260591-84.12663269-40.05232115-100.38217727-14.24454937-15.9203787-10.89289068-15.25004697-88.14862309-15.08246401-49.60454834 0-66.36284173 0.50274881-63.34634894 1.84341226z" p-id="862" fill="#ef4d42"></path></svg>